<?xml version="1.0" encoding="UTF-8" standalone="no"?>
<!-- Created with Inkscape (http://www.inkscape.org/) -->

<svg
   width="166.83644mm"
   height="59.836399mm"
   viewBox="0 0 166.83644 59.836399"
   version="1.1"
   id="svg1"
   xmlns="http://www.w3.org/2000/svg"
   xmlns:svg="http://www.w3.org/2000/svg">
  <defs
     id="defs1" />
  <g
     id="layer1"
     transform="translate(-73.818734,-124.35417)">
    <path
       id="path99"
       d="m 103.73711,125.14157 c -7.781219,0 -15.096419,3.03001 -20.598693,8.53228 -5.502275,5.50192 -8.532283,12.81748 -8.532283,20.5987 0,7.78122 3.030008,15.09641 8.532283,20.59869 5.502274,5.50192 12.817474,8.53228 20.598693,8.53228 7.78122,0 15.09642,-3.03036 20.59869,-8.53228 5.50228,-5.50228 8.53229,-12.81747 8.53229,-20.59869 0,-7.78122 -3.03001,-15.09678 -8.53229,-20.5987 -5.50227,-5.50227 -12.81747,-8.53228 -20.59869,-8.53228 m 0,59.049 c -7.991475,0 -15.504583,-3.11185 -21.155377,-8.76265 -5.650794,-5.65079 -8.762999,-13.1639 -8.762999,-21.15537 0,-7.99148 3.112205,-15.50459 8.762999,-21.15538 5.650794,-5.65079 13.163902,-8.763 21.155377,-8.763 7.99147,0 15.50458,3.11221 21.15538,8.763 5.65079,5.65079 8.763,13.1639 8.763,21.15538 0,7.99147 -3.11221,15.50458 -8.763,21.15537 -5.6508,5.6508 -13.16391,8.76265 -21.15538,8.76265"
       style="fill:#000000;fill-opacity:1;fill-rule:nonzero;stroke:none;stroke-width:0.352778" />
    <path
       id="path100"
       d="m 103.73711,128.83215 c -6.795205,0 -13.18401,2.64619 -17.989196,7.45137 -4.804833,4.80483 -7.451019,11.19364 -7.451019,17.98885 0,6.79555 2.646186,13.18401 7.451019,17.98919 4.805186,4.80483 11.193991,7.45137 17.989196,7.45137 6.79521,0 13.18401,-2.64654 17.9892,-7.45137 4.80483,-4.80518 7.45137,-11.19364 7.45137,-17.98919 0,-6.79521 -2.64654,-13.18402 -7.45137,-17.98885 -4.80519,-4.80518 -11.19399,-7.45137 -17.9892,-7.45137 m 0,51.66783 c -7.005814,0 -13.591822,-2.72803 -18.54588,-7.68173 -4.953705,-4.95371 -7.681735,-11.54007 -7.681735,-18.54588 0,-7.00547 2.72803,-13.59183 7.681735,-18.54553 4.954058,-4.95371 11.540066,-7.68209 18.54588,-7.68209 7.00581,0 13.59217,2.72838 18.54588,7.68209 4.9537,4.9537 7.68174,11.54006 7.68174,18.54553 0,7.00581 -2.72804,13.59217 -7.68174,18.54588 -4.95371,4.9537 -11.54007,7.68173 -18.54588,7.68173"
       style="fill:#000000;fill-opacity:1;fill-rule:nonzero;stroke:none;stroke-width:0.352778" />
    <path
       id="path101"
       d="m 89.396558,157.95784 c -0.217311,0 -0.3937,-0.17639 -0.3937,-0.3937 v -12.46505 c 0,-0.21766 0.176389,-0.3937 0.3937,-0.3937 0.217311,0 0.3937,0.17604 0.3937,0.3937 v 12.46505 c 0,0.21731 -0.176389,0.3937 -0.3937,0.3937"
       style="fill:#000000;fill-opacity:1;fill-rule:nonzero;stroke:none;stroke-width:0.352778" />
    <path
       id="path102"
       d="m 91.374556,157.65618 c -0.217311,0 -0.3937,-0.17639 -0.3937,-0.3937 v -12.83652 c 0,-0.21767 0.176389,-0.3937 0.3937,-0.3937 0.217311,0 0.3937,0.17603 0.3937,0.3937 v 12.83652 c 0,0.21731 -0.176389,0.3937 -0.3937,0.3937"
       style="fill:#000000;fill-opacity:1;fill-rule:nonzero;stroke:none;stroke-width:0.352778" />
    <path
       id="path103"
       d="m 93.847061,157.45777 c -0.217311,0 -0.3937,-0.17639 -0.3937,-0.3937 v -13.09723 c 0,-0.21731 0.176389,-0.3937 0.3937,-0.3937 0.217311,0 0.3937,0.17639 0.3937,0.3937 v 13.09723 c 0,0.21731 -0.176389,0.3937 -0.3937,0.3937"
       style="fill:#000000;fill-opacity:1;fill-rule:nonzero;stroke:none;stroke-width:0.352778" />
    <path
       id="path104"
       d="m 96.814178,157.32284 c -0.217311,0 -0.3937,-0.17639 -0.3937,-0.3937 v -13.28843 c 0,-0.21731 0.176389,-0.3937 0.3937,-0.3937 0.217311,0 0.3937,0.17639 0.3937,0.3937 v 13.28843 c 0,0.21731 -0.176389,0.3937 -0.3937,0.3937"
       style="fill:#000000;fill-opacity:1;fill-rule:nonzero;stroke:none;stroke-width:0.352778" />
    <path
       id="path105"
       d="m 99.286603,157.25951 c -0.217311,0 -0.3937,-0.17639 -0.3937,-0.3937 v -13.38545 c 0,-0.21731 0.176389,-0.39334 0.3937,-0.39334 0.217311,0 0.3937,0.17603 0.3937,0.39334 v 13.38545 c 0,0.21731 -0.176389,0.3937 -0.3937,0.3937"
       style="fill:#000000;fill-opacity:1;fill-rule:nonzero;stroke:none;stroke-width:0.352778" />
    <path
       id="path106"
       d="m 102.25361,157.22028 c -0.21731,0 -0.3937,-0.17639 -0.3937,-0.3937 v -13.45142 c 0,-0.21731 0.17639,-0.3937 0.3937,-0.3937 0.21731,0 0.3937,0.17639 0.3937,0.3937 v 13.45142 c 0,0.21731 -0.17639,0.3937 -0.3937,0.3937"
       style="fill:#000000;fill-opacity:1;fill-rule:nonzero;stroke:none;stroke-width:0.352778" />
    <path
       id="path107"
       d="m 89.396558,166.87952 c -0.217311,0 -0.3937,-0.17639 -0.3937,-0.3937 v -7.1374 c 0,-0.21731 0.176389,-0.3937 0.3937,-0.3937 0.217311,0 0.3937,0.17639 0.3937,0.3937 v 7.1374 c 0,0.21731 -0.176389,0.3937 -0.3937,0.3937"
       style="fill:#000000;fill-opacity:1;fill-rule:nonzero;stroke:none;stroke-width:0.352778" />
    <path
       id="path108"
       d="m 91.374556,166.87952 c -0.217311,0 -0.3937,-0.17639 -0.3937,-0.3937 v -7.43902 c 0,-0.21767 0.176389,-0.3937 0.3937,-0.3937 0.217311,0 0.3937,0.17603 0.3937,0.3937 v 7.43902 c 0,0.21731 -0.176389,0.3937 -0.3937,0.3937"
       style="fill:#000000;fill-opacity:1;fill-rule:nonzero;stroke:none;stroke-width:0.352778" />
    <path
       id="path109"
       d="m 94.341514,166.87952 c -0.217311,0 -0.3937,-0.17639 -0.3937,-0.3937 v -7.66762 c 0,-0.21732 0.176389,-0.3937 0.3937,-0.3937 0.217311,0 0.3937,0.17638 0.3937,0.3937 v 7.66762 c 0,0.21731 -0.176389,0.3937 -0.3937,0.3937"
       style="fill:#000000;fill-opacity:1;fill-rule:nonzero;stroke:none;stroke-width:0.352778" />
    <path
       id="path110"
       d="m 96.319566,166.87952 c -0.217311,0 -0.3937,-0.17639 -0.3937,-0.3937 v -7.75511 c 0,-0.21731 0.176389,-0.3937 0.3937,-0.3937 0.217311,0 0.3937,0.17639 0.3937,0.3937 v 7.75511 c 0,0.21731 -0.176389,0.3937 -0.3937,0.3937"
       style="fill:#000000;fill-opacity:1;fill-rule:nonzero;stroke:none;stroke-width:0.352778" />
    <path
       id="path111"
       d="m 99.78111,166.87952 c -0.217311,0 -0.3937,-0.17639 -0.3937,-0.3937 v -7.84437 c 0,-0.21731 0.176389,-0.3937 0.3937,-0.3937 0.217311,0 0.3937,0.17639 0.3937,0.3937 v 7.84437 c 0,0.21731 -0.176389,0.3937 -0.3937,0.3937"
       style="fill:#000000;fill-opacity:1;fill-rule:nonzero;stroke:none;stroke-width:0.352778" />
    <path
       id="path112"
       d="m 101.75913,166.87952 c -0.21731,0 -0.3937,-0.17639 -0.3937,-0.3937 v -7.86765 c 0,-0.21731 0.17639,-0.3937 0.3937,-0.3937 0.21731,0 0.3937,0.17639 0.3937,0.3937 v 7.86765 c 0,0.21731 -0.17639,0.3937 -0.3937,0.3937"
       style="fill:#000000;fill-opacity:1;fill-rule:nonzero;stroke:none;stroke-width:0.352778" />
    <path
       id="path113"
       d="m 91.374556,166.87952 h -1.978025 c -0.217311,0 -0.3937,-0.17639 -0.3937,-0.3937 0,-0.21731 0.176389,-0.3937 0.3937,-0.3937 h 1.978025 c 0.217311,0 0.3937,0.17639 0.3937,0.3937 0,0.21731 -0.176389,0.3937 -0.3937,0.3937"
       style="fill:#000000;fill-opacity:1;fill-rule:nonzero;stroke:none;stroke-width:0.352778" />
    <path
       id="path114"
       d="m 96.319566,166.87952 h -1.978025 c -0.217311,0 -0.3937,-0.17639 -0.3937,-0.3937 0,-0.21731 0.176389,-0.3937 0.3937,-0.3937 h 1.978025 c 0.217311,0 0.3937,0.17639 0.3937,0.3937 0,0.21731 -0.176389,0.3937 -0.3937,0.3937"
       style="fill:#000000;fill-opacity:1;fill-rule:nonzero;stroke:none;stroke-width:0.352778" />
    <path
       id="path115"
       d="m 101.75913,166.87952 h -1.978025 c -0.217311,0 -0.3937,-0.17639 -0.3937,-0.3937 0,-0.21731 0.176389,-0.3937 0.3937,-0.3937 h 1.978025 c 0.21731,0 0.3937,0.17639 0.3937,0.3937 0,0.21731 -0.17639,0.3937 -0.3937,0.3937"
       style="fill:#000000;fill-opacity:1;fill-rule:nonzero;stroke:none;stroke-width:0.352778" />
    <path
       id="path116"
       d="m 94.341514,166.38506 h -2.966861 c -0.217311,0 -0.3937,-0.17639 -0.3937,-0.3937 0,-0.21731 0.176389,-0.3937 0.3937,-0.3937 h 2.966861 c 0.217311,0 0.3937,0.17639 0.3937,0.3937 0,0.21731 -0.176389,0.3937 -0.3937,0.3937"
       style="fill:#000000;fill-opacity:1;fill-rule:nonzero;stroke:none;stroke-width:0.352778" />
    <path
       id="path117"
       d="m 99.78111,166.38506 h -3.461455 c -0.217664,0 -0.3937,-0.17639 -0.3937,-0.3937 0,-0.21731 0.176036,-0.3937 0.3937,-0.3937 h 3.461455 c 0.217311,0 0.3937,0.17639 0.3937,0.3937 0,0.21731 -0.176389,0.3937 -0.3937,0.3937"
       style="fill:#000000;fill-opacity:1;fill-rule:nonzero;stroke:none;stroke-width:0.352778" />
    <path
       id="path118"
       d="m 103.73711,166.38506 h -1.97802 c -0.21732,0 -0.3937,-0.17639 -0.3937,-0.3937 0,-0.21731 0.17638,-0.3937 0.3937,-0.3937 h 1.97802 c 0.21731,0 0.3937,0.17639 0.3937,0.3937 0,0.21731 -0.17639,0.3937 -0.3937,0.3937"
       style="fill:#000000;fill-opacity:1;fill-rule:nonzero;stroke:none;stroke-width:0.352778" />
    <path
       id="path119"
       d="M 103.73906,168.36305 H 88.407691 c -0.217311,0 -0.3937,-0.17639 -0.3937,-0.3937 0,-0.21731 0.176389,-0.3937 0.3937,-0.3937 h 15.331369 c 0.21731,0 0.3937,0.17639 0.3937,0.3937 0,0.21731 -0.17639,0.3937 -0.3937,0.3937"
       style="fill:#000000;fill-opacity:1;fill-rule:nonzero;stroke:none;stroke-width:0.352778" />
    <path
       id="path120"
       d="M 103.73906,169.84659 H 86.923908 c -0.217311,0 -0.393347,-0.17639 -0.393347,-0.3937 0,-0.21731 0.176036,-0.3937 0.393347,-0.3937 h 16.815152 c 0.21731,0 0.3937,0.17639 0.3937,0.3937 0,0.21731 -0.17639,0.3937 -0.3937,0.3937"
       style="fill:#000000;fill-opacity:1;fill-rule:nonzero;stroke:none;stroke-width:0.352778" />
    <path
       id="path121"
       d="m 88.407625,144.36326 c -0.217311,0 -0.3937,-0.17639 -0.3937,-0.3937 0,-1.15711 1.706033,-1.99037 5.215466,-2.54741 2.762603,-0.43885 6.494992,-0.68015 10.509599,-0.68015 0.21731,0 0.3937,0.17603 0.3937,0.3937 0,0.21731 -0.17639,0.39334 -0.3937,0.39334 -3.974391,0 -7.663035,0.23813 -10.386126,0.67063 -4.332111,0.68757 -4.551539,1.59491 -4.551539,1.76989 0,0.21731 -0.176389,0.3937 -0.3937,0.3937"
       style="fill:#000000;fill-opacity:1;fill-rule:nonzero;stroke:none;stroke-width:0.352778" />
    <path
       id="path122"
       d="m 88.407625,146.40673 c -0.217311,0 -0.3937,-0.17639 -0.3937,-0.3937 0,-1.15711 1.706033,-1.99037 5.215466,-2.54741 2.762603,-0.43885 6.494992,-0.68015 10.509599,-0.68015 0.21731,0 0.3937,0.17603 0.3937,0.3937 0,0.21731 -0.17639,0.39334 -0.3937,0.39334 -3.974391,0 -7.663035,0.23813 -10.386126,0.67063 -4.332111,0.68757 -4.551539,1.59491 -4.551539,1.76989 0,0.21731 -0.176389,0.3937 -0.3937,0.3937"
       style="fill:#000000;fill-opacity:1;fill-rule:nonzero;stroke:none;stroke-width:0.352778" />
    <path
       id="path123"
       d="m 88.407625,144.23129 c -0.217311,0 -0.3937,-0.17639 -0.3937,-0.3937 v -1.9117 c 0,-1.15711 1.706033,-1.99037 5.215466,-2.54741 2.762603,-0.4385 6.494992,-0.68016 10.509599,-0.68016 0.21731,0 0.3937,0.17639 0.3937,0.3937 0,0.21731 -0.17639,0.3937 -0.3937,0.3937 -3.974743,0 -7.663035,0.23813 -10.386126,0.67028 -4.332111,0.68792 -4.551539,1.59526 -4.551539,1.76989 v 1.9117 c 0,0.21731 -0.176389,0.3937 -0.3937,0.3937"
       style="fill:#000000;fill-opacity:1;fill-rule:nonzero;stroke:none;stroke-width:0.352778" />
    <path
       id="path124"
       d="m 88.407625,158.47296 c -0.217311,0 -0.3937,-0.17639 -0.3937,-0.3937 0,-0.56197 0.734836,-0.78846 1.528586,-0.94932 0.772583,-0.15699 1.899003,-0.29034 3.348567,-0.39653 2.67723,-0.19649 6.42761,-0.30056 10.846152,-0.30056 0.21731,0 0.3937,0.17639 0.3937,0.3937 0,0.21731 -0.17639,0.3937 -0.3937,0.3937 -10.812639,0 -14.457186,0.59302 -14.949311,0.96132 -0.04516,0.16792 -0.198261,0.29139 -0.380294,0.29139"
       style="fill:#000000;fill-opacity:1;fill-rule:nonzero;stroke:none;stroke-width:0.352778" />
    <path
       id="path125"
       d="m 88.407625,160.25724 c -0.217311,0 -0.3937,-0.17639 -0.3937,-0.3937 0,-0.56197 0.734836,-0.78846 1.528586,-0.94932 0.772583,-0.15699 1.899003,-0.29034 3.348567,-0.39653 2.67723,-0.19649 6.42761,-0.30056 10.846152,-0.30056 0.21731,0 0.3937,0.17639 0.3937,0.3937 0,0.21731 -0.17639,0.3937 -0.3937,0.3937 -10.812639,0 -14.457186,0.59302 -14.949311,0.96132 -0.04516,0.16792 -0.198261,0.29139 -0.380294,0.29139"
       style="fill:#000000;fill-opacity:1;fill-rule:nonzero;stroke:none;stroke-width:0.352778" />
    <path
       id="path126"
       d="m 102.25348,151.01397 c -0.21519,0 -0.39123,-0.17321 -0.3937,-0.38947 -0.002,-0.21731 0.17216,-0.39546 0.38947,-0.39793 0.48754,-0.005 0.98848,-0.008 1.48801,-0.008 0.21731,0 0.3937,0.17639 0.3937,0.3937 0,0.21731 -0.17639,0.3937 -0.3937,0.3937 -0.49671,0 -0.99448,0.003 -1.47919,0.008 z"
       style="fill:#000000;fill-opacity:1;fill-rule:nonzero;stroke:none;stroke-width:0.352778" />
    <path
       id="path127"
       d="m 96.813781,151.19159 c -0.207081,0 -0.380647,-0.16192 -0.392642,-0.37147 -0.01235,-0.21696 0.153811,-0.40288 0.37077,-0.41522 0.796219,-0.0452 1.631244,-0.0825 2.481439,-0.11183 0.21343,-0.005 0.399344,0.16263 0.406752,0.38029 0.0074,0.21696 -0.16263,0.39934 -0.379941,0.40675 -0.84455,0.0289 -1.673225,0.066 -2.4638,0.11077 -0.0074,3.6e-4 -0.01517,7.1e-4 -0.02258,7.1e-4"
       style="fill:#000000;fill-opacity:1;fill-rule:nonzero;stroke:none;stroke-width:0.352778" />
    <path
       id="path128"
       d="m 91.37408,151.69847 c -0.191911,0 -0.360186,-0.14076 -0.389114,-0.33655 -0.0314,-0.21484 0.117122,-0.41487 0.332317,-0.44662 0.725664,-0.10689 1.564569,-0.20496 2.493433,-0.29139 0.216958,-0.0198 0.408164,0.13899 0.428272,0.3556 0.02011,0.2166 -0.138994,0.40852 -0.3556,0.42827 -0.914753,0.0854 -1.739547,0.18133 -2.451452,0.28646 -0.0194,0.003 -0.03881,0.004 -0.05786,0.004"
       style="fill:#000000;fill-opacity:1;fill-rule:nonzero;stroke:none;stroke-width:0.352778" />
    <path
       id="path129"
       d="m 102.25348,152.79825 c -0.21519,0 -0.39123,-0.17357 -0.3937,-0.38947 -0.002,-0.21731 0.17216,-0.39546 0.38947,-0.39793 0.49671,-0.005 0.9973,-0.008 1.48801,-0.008 0.21731,0 0.3937,0.17639 0.3937,0.3937 0,0.21731 -0.17639,0.3937 -0.3937,0.3937 -0.48789,0 -0.98566,0.003 -1.47955,0.008 z"
       style="fill:#000000;fill-opacity:1;fill-rule:nonzero;stroke:none;stroke-width:0.352778" />
    <path
       id="path130"
       d="m 96.813781,152.97594 c -0.207081,0 -0.380647,-0.16192 -0.392642,-0.37147 -0.01235,-0.21696 0.153811,-0.40288 0.37077,-0.41522 0.794808,-0.0452 1.62948,-0.0825 2.481439,-0.11183 0.21343,-0.005 0.399344,0.16263 0.406752,0.37994 0.0074,0.21731 -0.16263,0.39934 -0.379941,0.4071 -0.845961,0.0286 -1.674636,0.066 -2.4638,0.11077 -0.0074,3.6e-4 -0.01517,7.1e-4 -0.02258,7.1e-4"
       style="fill:#000000;fill-opacity:1;fill-rule:nonzero;stroke:none;stroke-width:0.352778" />
    <path
       id="path131"
       d="m 91.37408,153.48274 c -0.191911,0 -0.360186,-0.14076 -0.389114,-0.33655 -0.0314,-0.21484 0.117122,-0.41487 0.332317,-0.44662 0.725664,-0.10689 1.564569,-0.20496 2.493433,-0.29139 0.216958,-0.0198 0.408164,0.13899 0.428272,0.3556 0.02011,0.2166 -0.138994,0.40852 -0.3556,0.42827 -0.914753,0.0854 -1.739547,0.18133 -2.451452,0.28646 -0.0194,0.003 -0.03881,0.004 -0.05786,0.004"
       style="fill:#000000;fill-opacity:1;fill-rule:nonzero;stroke:none;stroke-width:0.352778" />
    <path
       id="path132"
       d="m 118.07771,157.95784 c -0.21731,0 -0.3937,-0.17639 -0.3937,-0.3937 v -12.46505 c 0,-0.21766 0.17639,-0.3937 0.3937,-0.3937 0.21731,0 0.3937,0.17604 0.3937,0.3937 v 12.46505 c 0,0.21731 -0.17639,0.3937 -0.3937,0.3937"
       style="fill:#000000;fill-opacity:1;fill-rule:nonzero;stroke:none;stroke-width:0.352778" />
    <path
       id="path133"
       d="m 116.09971,157.65618 c -0.21731,0 -0.3937,-0.17639 -0.3937,-0.3937 v -12.83652 c 0,-0.21767 0.17639,-0.3937 0.3937,-0.3937 0.21731,0 0.3937,0.17603 0.3937,0.3937 v 12.83652 c 0,0.21731 -0.17639,0.3937 -0.3937,0.3937"
       style="fill:#000000;fill-opacity:1;fill-rule:nonzero;stroke:none;stroke-width:0.352778" />
    <path
       id="path134"
       d="m 113.62713,157.45777 c -0.21731,0 -0.3937,-0.17639 -0.3937,-0.3937 v -13.09723 c 0,-0.21731 0.17639,-0.3937 0.3937,-0.3937 0.21731,0 0.3937,0.17639 0.3937,0.3937 v 13.09723 c 0,0.21731 -0.17639,0.3937 -0.3937,0.3937"
       style="fill:#000000;fill-opacity:1;fill-rule:nonzero;stroke:none;stroke-width:0.352778" />
    <path
       id="path135"
       d="m 110.66014,157.32284 c -0.21731,0 -0.3937,-0.17639 -0.3937,-0.3937 v -13.28843 c 0,-0.21731 0.17639,-0.3937 0.3937,-0.3937 0.21731,0 0.3937,0.17639 0.3937,0.3937 v 13.28843 c 0,0.21731 -0.17639,0.3937 -0.3937,0.3937"
       style="fill:#000000;fill-opacity:1;fill-rule:nonzero;stroke:none;stroke-width:0.352778" />
    <path
       id="path136"
       d="m 108.18761,157.25951 c -0.21731,0 -0.3937,-0.17639 -0.3937,-0.3937 v -13.38545 c 0,-0.21731 0.17639,-0.39334 0.3937,-0.39334 0.21731,0 0.3937,0.17603 0.3937,0.39334 v 13.38545 c 0,0.21731 -0.17639,0.3937 -0.3937,0.3937"
       style="fill:#000000;fill-opacity:1;fill-rule:nonzero;stroke:none;stroke-width:0.352778" />
    <path
       id="path137"
       d="m 105.22057,157.22028 c -0.21731,0 -0.3937,-0.17639 -0.3937,-0.3937 v -13.45142 c 0,-0.21731 0.17639,-0.3937 0.3937,-0.3937 0.21731,0 0.3937,0.17639 0.3937,0.3937 v 13.45142 c 0,0.21731 -0.17639,0.3937 -0.3937,0.3937"
       style="fill:#000000;fill-opacity:1;fill-rule:nonzero;stroke:none;stroke-width:0.352778" />
    <path
       id="path138"
       d="m 118.07771,166.87952 c -0.21731,0 -0.3937,-0.17639 -0.3937,-0.3937 v -7.1374 c 0,-0.21731 0.17639,-0.3937 0.3937,-0.3937 0.21731,0 0.3937,0.17639 0.3937,0.3937 v 7.1374 c 0,0.21731 -0.17639,0.3937 -0.3937,0.3937"
       style="fill:#000000;fill-opacity:1;fill-rule:nonzero;stroke:none;stroke-width:0.352778" />
    <path
       id="path139"
       d="m 116.09971,166.87952 c -0.21731,0 -0.3937,-0.17639 -0.3937,-0.3937 v -7.43902 c 0,-0.21767 0.17639,-0.3937 0.3937,-0.3937 0.21731,0 0.3937,0.17603 0.3937,0.3937 v 7.43902 c 0,0.21731 -0.17639,0.3937 -0.3937,0.3937"
       style="fill:#000000;fill-opacity:1;fill-rule:nonzero;stroke:none;stroke-width:0.352778" />
    <path
       id="path140"
       d="m 113.13262,166.87952 c -0.21731,0 -0.3937,-0.17639 -0.3937,-0.3937 v -7.66762 c 0,-0.21732 0.17639,-0.3937 0.3937,-0.3937 0.21731,0 0.3937,0.17638 0.3937,0.3937 v 7.66762 c 0,0.21731 -0.17639,0.3937 -0.3937,0.3937"
       style="fill:#000000;fill-opacity:1;fill-rule:nonzero;stroke:none;stroke-width:0.352778" />
    <path
       id="path141"
       d="m 111.15462,166.87952 c -0.21731,0 -0.3937,-0.17639 -0.3937,-0.3937 v -7.75511 c 0,-0.21731 0.17639,-0.3937 0.3937,-0.3937 0.21731,0 0.3937,0.17639 0.3937,0.3937 v 7.75511 c 0,0.21731 -0.17639,0.3937 -0.3937,0.3937"
       style="fill:#000000;fill-opacity:1;fill-rule:nonzero;stroke:none;stroke-width:0.352778" />
    <path
       id="path142"
       d="m 107.69316,166.87952 c -0.21731,0 -0.3937,-0.17639 -0.3937,-0.3937 v -7.84437 c 0,-0.21731 0.17639,-0.3937 0.3937,-0.3937 0.21731,0 0.3937,0.17639 0.3937,0.3937 v 7.84437 c 0,0.21731 -0.17639,0.3937 -0.3937,0.3937"
       style="fill:#000000;fill-opacity:1;fill-rule:nonzero;stroke:none;stroke-width:0.352778" />
    <path
       id="path143"
       d="m 105.71518,166.87952 c -0.21731,0 -0.3937,-0.17639 -0.3937,-0.3937 v -7.86765 c 0,-0.21731 0.17639,-0.3937 0.3937,-0.3937 0.21731,0 0.3937,0.17639 0.3937,0.3937 v 7.86765 c 0,0.21731 -0.17639,0.3937 -0.3937,0.3937"
       style="fill:#000000;fill-opacity:1;fill-rule:nonzero;stroke:none;stroke-width:0.352778" />
    <path
       id="path144"
       d="m 118.07771,166.87952 h -1.97802 c -0.21732,0 -0.3937,-0.17639 -0.3937,-0.3937 0,-0.21731 0.17638,-0.3937 0.3937,-0.3937 h 1.97802 c 0.21731,0 0.3937,0.17639 0.3937,0.3937 0,0.21731 -0.17639,0.3937 -0.3937,0.3937"
       style="fill:#000000;fill-opacity:1;fill-rule:nonzero;stroke:none;stroke-width:0.352778" />
    <path
       id="path145"
       d="m 113.13262,166.87952 h -1.97802 c -0.21732,0 -0.3937,-0.17639 -0.3937,-0.3937 0,-0.21731 0.17638,-0.3937 0.3937,-0.3937 h 1.97802 c 0.21731,0 0.3937,0.17639 0.3937,0.3937 0,0.21731 -0.17639,0.3937 -0.3937,0.3937"
       style="fill:#000000;fill-opacity:1;fill-rule:nonzero;stroke:none;stroke-width:0.352778" />
    <path
       id="path146"
       d="m 107.69316,166.87952 h -1.97802 c -0.21732,0 -0.3937,-0.17639 -0.3937,-0.3937 0,-0.21731 0.17638,-0.3937 0.3937,-0.3937 h 1.97802 c 0.21731,0 0.3937,0.17639 0.3937,0.3937 0,0.21731 -0.17639,0.3937 -0.3937,0.3937"
       style="fill:#000000;fill-opacity:1;fill-rule:nonzero;stroke:none;stroke-width:0.352778" />
    <path
       id="path147"
       d="m 116.09971,166.38506 h -2.96721 c -0.21731,0 -0.39335,-0.17639 -0.39335,-0.3937 0,-0.21731 0.17604,-0.3937 0.39335,-0.3937 h 2.96721 c 0.21731,0 0.3937,0.17639 0.3937,0.3937 0,0.21731 -0.17639,0.3937 -0.3937,0.3937"
       style="fill:#000000;fill-opacity:1;fill-rule:nonzero;stroke:none;stroke-width:0.352778" />
    <path
       id="path148"
       d="m 111.15462,166.38506 h -3.46146 c -0.21731,0 -0.3937,-0.17639 -0.3937,-0.3937 0,-0.21731 0.17639,-0.3937 0.3937,-0.3937 h 3.46146 c 0.21731,0 0.3937,0.17639 0.3937,0.3937 0,0.21731 -0.17639,0.3937 -0.3937,0.3937"
       style="fill:#000000;fill-opacity:1;fill-rule:nonzero;stroke:none;stroke-width:0.352778" />
    <path
       id="path149"
       d="m 105.71518,166.38506 h -1.97802 c -0.21732,0 -0.3937,-0.17639 -0.3937,-0.3937 0,-0.21731 0.17638,-0.3937 0.3937,-0.3937 h 1.97802 c 0.21731,0 0.3937,0.17639 0.3937,0.3937 0,0.21731 -0.17639,0.3937 -0.3937,0.3937"
       style="fill:#000000;fill-opacity:1;fill-rule:nonzero;stroke:none;stroke-width:0.352778" />
    <path
       id="path150"
       d="m 119.06669,168.36305 h -15.33137 c -0.21766,0 -0.3937,-0.17639 -0.3937,-0.3937 0,-0.21731 0.17604,-0.3937 0.3937,-0.3937 h 15.33137 c 0.21731,0 0.3937,0.17639 0.3937,0.3937 0,0.21731 -0.17639,0.3937 -0.3937,0.3937"
       style="fill:#000000;fill-opacity:1;fill-rule:nonzero;stroke:none;stroke-width:0.352778" />
    <path
       id="path151"
       d="m 120.55021,169.84659 h -16.81515 c -0.21731,0 -0.3937,-0.17639 -0.3937,-0.3937 0,-0.21731 0.17639,-0.3937 0.3937,-0.3937 h 16.81515 c 0.21731,0 0.3937,0.17639 0.3937,0.3937 0,0.21731 -0.17639,0.3937 -0.3937,0.3937"
       style="fill:#000000;fill-opacity:1;fill-rule:nonzero;stroke:none;stroke-width:0.352778" />
    <path
       id="path152"
       d="m 119.06669,144.36326 c -0.21731,0 -0.3937,-0.17639 -0.3937,-0.3937 0,-0.17498 -0.21943,-1.08232 -4.55154,-1.76989 -2.72309,-0.4325 -6.41173,-0.67063 -10.38613,-0.67063 -0.21766,0 -0.3937,-0.17603 -0.3937,-0.39334 0,-0.21767 0.17604,-0.3937 0.3937,-0.3937 4.01461,0 7.747,0.2413 10.5096,0.68015 3.50944,0.55704 5.21547,1.3903 5.21547,2.54741 0,0.21731 -0.17639,0.3937 -0.3937,0.3937"
       style="fill:#000000;fill-opacity:1;fill-rule:nonzero;stroke:none;stroke-width:0.352778" />
    <path
       id="path153"
       d="m 119.06669,146.40673 c -0.21731,0 -0.3937,-0.17639 -0.3937,-0.3937 0,-0.17498 -0.21943,-1.08232 -4.55154,-1.76989 -2.72309,-0.4325 -6.41173,-0.67063 -10.38613,-0.67063 -0.21766,0 -0.3937,-0.17603 -0.3937,-0.39334 0,-0.21767 0.17604,-0.3937 0.3937,-0.3937 4.01461,0 7.747,0.2413 10.5096,0.68015 3.50944,0.55704 5.21547,1.3903 5.21547,2.54741 0,0.21731 -0.17639,0.3937 -0.3937,0.3937"
       style="fill:#000000;fill-opacity:1;fill-rule:nonzero;stroke:none;stroke-width:0.352778" />
    <path
       id="path154"
       d="m 119.06669,144.23129 c -0.21731,0 -0.3937,-0.17639 -0.3937,-0.3937 v -1.9117 c 0,-0.17463 -0.21943,-1.08197 -4.55154,-1.76989 -2.72309,-0.43215 -6.41173,-0.67028 -10.38613,-0.67028 -0.21766,0 -0.3937,-0.17639 -0.3937,-0.3937 0,-0.21731 0.17604,-0.3937 0.3937,-0.3937 4.01461,0 7.747,0.24166 10.5096,0.68016 3.50944,0.55704 5.21547,1.3903 5.21547,2.54741 v 1.9117 c 0,0.21731 -0.17639,0.3937 -0.3937,0.3937"
       style="fill:#000000;fill-opacity:1;fill-rule:nonzero;stroke:none;stroke-width:0.352778" />
    <path
       id="path155"
       d="m 119.06669,158.47296 c -0.18203,0 -0.33514,-0.12347 -0.38029,-0.29139 -0.49213,-0.3683 -4.13668,-0.96132 -14.94931,-0.96132 -0.21732,0 -0.3937,-0.17639 -0.3937,-0.3937 0,-0.21731 0.17638,-0.3937 0.3937,-0.3937 4.41854,0 8.16892,0.10407 10.84615,0.30056 1.44956,0.10619 2.57598,0.23954 3.34856,0.39653 0.79375,0.16086 1.52859,0.38735 1.52859,0.94932 0,0.21731 -0.17639,0.3937 -0.3937,0.3937"
       style="fill:#000000;fill-opacity:1;fill-rule:nonzero;stroke:none;stroke-width:0.352778" />
    <path
       id="path156"
       d="m 119.06669,160.25724 c -0.18203,0 -0.33514,-0.12347 -0.38029,-0.29139 -0.49213,-0.3683 -4.13668,-0.96132 -14.94931,-0.96132 -0.21732,0 -0.3937,-0.17639 -0.3937,-0.3937 0,-0.21731 0.17638,-0.3937 0.3937,-0.3937 4.41854,0 8.16892,0.10407 10.84615,0.30056 1.44956,0.10619 2.57598,0.23954 3.34856,0.39653 0.79375,0.16086 1.52859,0.38735 1.52859,0.94932 0,0.21731 -0.17639,0.3937 -0.3937,0.3937"
       style="fill:#000000;fill-opacity:1;fill-rule:nonzero;stroke:none;stroke-width:0.352778" />
    <path
       id="path157"
       d="m 105.22065,151.01397 h -0.005 c -0.48436,-0.005 -0.98213,-0.008 -1.47884,-0.008 -0.21766,0 -0.3937,-0.17639 -0.3937,-0.3937 0,-0.21731 0.17604,-0.3937 0.3937,-0.3937 0.49953,0 1.00012,0.003 1.48766,0.008 0.21731,0.002 0.39159,0.18062 0.38947,0.39793 -0.002,0.21626 -0.17815,0.38947 -0.3937,0.38947"
       style="fill:#000000;fill-opacity:1;fill-rule:nonzero;stroke:none;stroke-width:0.352778" />
    <path
       id="path158"
       d="m 110.66051,151.19159 c -0.007,0 -0.0152,-3.5e-4 -0.0226,-7.1e-4 -0.79057,-0.0448 -1.61925,-0.0818 -2.4638,-0.11077 -0.21731,-0.007 -0.38735,-0.18979 -0.37994,-0.40675 0.007,-0.21766 0.19226,-0.38559 0.40675,-0.38029 0.8502,0.0293 1.68522,0.0667 2.48144,0.11183 0.21696,0.0123 0.38312,0.19826 0.37077,0.41522 -0.012,0.20955 -0.18556,0.37147 -0.39264,0.37147"
       style="fill:#000000;fill-opacity:1;fill-rule:nonzero;stroke:none;stroke-width:0.352778" />
    <path
       id="path159"
       d="m 116.10019,151.69847 c -0.019,0 -0.0384,-10e-4 -0.0579,-0.004 -0.7119,-0.10513 -1.5367,-0.20109 -2.4518,-0.28646 -0.21625,-0.0198 -0.37536,-0.21167 -0.35525,-0.42827 0.0201,-0.21625 0.21096,-0.37536 0.42827,-0.3556 0.92887,0.0864 1.76777,0.1845 2.49344,0.29139 0.21519,0.0317 0.36371,0.23178 0.33231,0.44662 -0.0289,0.19579 -0.1972,0.33655 -0.38911,0.33655"
       style="fill:#000000;fill-opacity:1;fill-rule:nonzero;stroke:none;stroke-width:0.352778" />
    <path
       id="path160"
       d="m 105.22065,152.79825 h -0.004 c -0.49354,-0.005 -0.99131,-0.008 -1.4792,-0.008 -0.21766,0 -0.3937,-0.17639 -0.3937,-0.3937 0,-0.21731 0.17604,-0.3937 0.3937,-0.3937 0.49071,0 0.99131,0.003 1.48766,0.008 0.21731,0.002 0.39159,0.18062 0.38947,0.39793 -0.002,0.2159 -0.17815,0.38947 -0.3937,0.38947"
       style="fill:#000000;fill-opacity:1;fill-rule:nonzero;stroke:none;stroke-width:0.352778" />
    <path
       id="path161"
       d="m 110.66051,152.97594 c -0.007,0 -0.0152,-3.5e-4 -0.0226,-7.1e-4 -0.78916,-0.0448 -1.61784,-0.0822 -2.4638,-0.11077 -0.21731,-0.008 -0.38735,-0.18979 -0.37994,-0.4071 0.007,-0.21731 0.19226,-0.38524 0.40675,-0.37994 0.85196,0.0293 1.68663,0.0667 2.48144,0.11183 0.21696,0.0123 0.38312,0.19826 0.37077,0.41522 -0.012,0.20955 -0.18556,0.37147 -0.39264,0.37147"
       style="fill:#000000;fill-opacity:1;fill-rule:nonzero;stroke:none;stroke-width:0.352778" />
    <path
       id="path162"
       d="m 116.10019,153.48274 c -0.019,0 -0.0384,-0.001 -0.0579,-0.004 -0.7119,-0.10513 -1.5367,-0.20109 -2.4518,-0.28646 -0.21625,-0.0197 -0.37536,-0.21167 -0.35525,-0.42827 0.0201,-0.21625 0.21096,-0.37536 0.42827,-0.3556 0.92887,0.0864 1.76777,0.1845 2.49344,0.29139 0.21519,0.0318 0.36371,0.23178 0.33231,0.44662 -0.0289,0.19579 -0.1972,0.33655 -0.38911,0.33655"
       style="fill:#000000;fill-opacity:1;fill-rule:nonzero;stroke:none;stroke-width:0.352778" />
    <path
       id="path163"
       d="m 143.39783,139.10218 -0.34078,-5.37916 h 1.24495 l 0.32561,5.37916 c 0.14852,2.14912 1.20051,3.36409 3.03813,3.36409 1.79316,0 2.83068,-1.21497 2.96403,-3.36409 l 0.34079,-5.37916 h 1.18533 l -0.32597,5.37916 c -0.1778,2.8896 -1.65982,4.54942 -4.28272,4.54942 -2.54882,0 -3.98639,-1.65982 -4.14937,-4.54942"
       style="fill:#000000;fill-opacity:1;fill-rule:nonzero;stroke:none;stroke-width:0.352778" />
    <path
       id="path164"
       d="m 154.42143,133.72299 h 0.59267 l 6.81672,7.45419 v -7.45419 h 1.18569 v 9.78076 h -0.59267 l -6.81708,-7.45419 v 7.45419 h -1.18533 z"
       style="fill:#000000;fill-opacity:1;fill-rule:nonzero;stroke:none;stroke-width:0.352778" />
    <path
       id="path165"
       d="m 165.53395,133.72308 h 1.18534 v 9.78076 h -1.18534 z"
       style="fill:#000000;fill-opacity:1;fill-rule:nonzero;stroke:none;stroke-width:0.352778" />
    <path
       id="path166"
       d="m 177.90733,133.72299 -4.68277,9.78076 h -0.59302 l -4.65314,-9.78076 h 1.36349 l 3.61597,7.79498 3.64525,-7.79498 z"
       style="fill:#000000;fill-opacity:1;fill-rule:nonzero;stroke:none;stroke-width:0.352778" />
    <path
       id="path167"
       d="m 184.78171,142.43667 v 1.0668 h -5.61622 v -9.78041 h 5.17172 v 1.0668 h -3.98639 v 3.28965 h 3.98639 v 1.06715 h -3.98639 v 3.29001 z"
       style="fill:#000000;fill-opacity:1;fill-rule:nonzero;stroke:none;stroke-width:0.352778" />
    <path
       id="path168"
       d="m 188.1739,138.30222 h 1.86725 c 1.36349,0 2.22286,-0.71155 2.22286,-1.80799 0,-1.08197 -0.85937,-1.76353 -2.22286,-1.76353 h -1.86725 z m 6.22406,4.54942 -0.7112,0.889 -5.51286,-4.43089 v 4.19383 h -1.18533 v -9.78042 h 3.2452 c 2.0006,0 3.27519,1.05199 3.27519,2.71181 0,1.74836 -1.3783,2.85997 -3.54189,2.87478 z"
       style="fill:#000000;fill-opacity:1;fill-rule:nonzero;stroke:none;stroke-width:0.352778" />
    <path
       id="path169"
       d="m 201.85058,134.31555 -5.14209,8.1213 h 5.14209 v 1.0668 h -6.69819 v -0.59302 l 5.12727,-8.12059 h -4.8013 v -1.06716 h 6.37222 z"
       style="fill:#000000;fill-opacity:1;fill-rule:nonzero;stroke:none;stroke-width:0.352778" />
    <path
       id="path170"
       d="m 203.74614,133.72308 h 1.18533 v 9.78076 h -1.18533 z"
       style="fill:#000000;fill-opacity:1;fill-rule:nonzero;stroke:none;stroke-width:0.352778" />
    <path
       id="path171"
       d="m 213.27418,134.78993 h -2.81552 v 8.71361 h -1.18569 v -8.71361 h -2.83033 v -1.0668 h 6.83154 z"
       style="fill:#000000;fill-opacity:1;fill-rule:nonzero;stroke:none;stroke-width:0.352778" />
    <path
       id="path172"
       d="m 219.74907,139.35435 -1.9117,-3.85304 -1.92652,3.85304 z m 0.5334,1.0668 h -4.90502 l -1.54129,3.08257 h -1.24495 l 4.97946,-9.78076 h 0.59266 l 4.94983,9.78076 h -1.30422 z"
       style="fill:#000000;fill-opacity:1;fill-rule:nonzero;stroke:none;stroke-width:0.352778" />
    <path
       id="path173"
       d="m 150.30353,158.92473 -5.80919,-4.75686 v 4.50498 h -1.18533 v -9.78041 h 1.18533 v 4.74203 l 4.72757,-4.74203 h 1.5113 l -4.93465,4.90502 5.21652,4.23792 z"
       style="fill:#000000;fill-opacity:1;fill-rule:nonzero;stroke:none;stroke-width:0.352778" />
    <path
       id="path174"
       d="m 160.46795,153.94569 c 0,-2.43064 -1.68945,-4.19382 -4.03084,-4.19382 -2.19322,0 -3.79377,1.62983 -3.79377,3.86785 0,2.41512 1.70427,4.19347 4.03084,4.19347 2.20803,0 3.79377,-1.63018 3.79377,-3.8675 m -9.05475,-0.11853 c 0,-2.94887 2.19358,-5.08283 5.18689,-5.08283 2.97886,0 5.11281,2.10432 5.11281,4.99393 0,2.94887 -2.19322,5.08282 -5.20171,5.08282 -2.96368,0 -5.09799,-2.10432 -5.09799,-4.99392"
       style="fill:#000000;fill-opacity:1;fill-rule:nonzero;stroke:none;stroke-width:0.352778" />
    <path
       id="path175"
       d="m 174.63314,158.67288 -1.83762,-7.45384 -3.28965,7.45384 h -0.59302 l -3.29001,-7.36494 -1.83726,7.36494 h -1.23014 l 2.63772,-9.78041 h 0.59302 l 3.48227,7.64646 3.43817,-7.64646 h 0.59302 l 2.63772,9.78041 z"
       style="fill:#000000;fill-opacity:1;fill-rule:nonzero;stroke:none;stroke-width:0.352778" />
    <path
       id="path176"
       d="m 183.22588,157.60594 v 1.0668 h -5.61657 v -9.78041 h 5.17207 v 1.06715 h -3.98674 v 3.28965 h 3.98674 v 1.0668 h -3.98674 v 3.29001 z"
       style="fill:#000000;fill-opacity:1;fill-rule:nonzero;stroke:none;stroke-width:0.352778" />
    <path
       id="path177"
       d="m 185.43247,148.89244 h 0.59267 l 6.81672,7.45384 v -7.45384 h 1.18569 v 9.78041 h -0.59267 l -6.81708,-7.45384 v 7.45384 h -1.18533 z"
       style="fill:#000000;fill-opacity:1;fill-rule:nonzero;stroke:none;stroke-width:0.352778" />
    <path
       id="path178"
       d="m 195.92244,156.92416 c 0.81527,0.5782 1.67464,0.83009 2.54917,0.83009 1.18534,0 1.86725,-0.59302 1.86725,-1.39312 0,-2.03024 -4.26825,-2.38584 -4.26825,-5.09764 0,-1.48202 1.33385,-2.51919 3.17147,-2.51919 0.74083,0 1.43722,0.13335 2.04505,0.38524 v 1.27423 c -0.5782,-0.37042 -1.3783,-0.59267 -2.13395,-0.59267 -1.17087,0 -1.85244,0.59267 -1.85244,1.2894 0,1.97097 4.28272,2.40066 4.28272,5.21618 0,1.49683 -1.27423,2.50437 -3.27518,2.50437 -0.93345,0 -1.79282,-0.23707 -2.40066,-0.56304 z"
       style="fill:#000000;fill-opacity:1;fill-rule:nonzero;stroke:none;stroke-width:0.352778" />
    <path
       id="path179"
       d="m 210.47349,158.92473 -5.80919,-4.75686 v 4.50498 h -1.18533 v -9.78041 h 1.18533 v 4.74203 l 4.72757,-4.74203 h 1.5113 l -4.93465,4.90502 5.21652,4.23792 z"
       style="fill:#000000;fill-opacity:1;fill-rule:nonzero;stroke:none;stroke-width:0.352778" />
    <path
       id="path180"
       d="m 215.56965,147.95881 h -0.74083 l 0.96308,-2.37137 h 1.30422 z m 2.534,9.64706 v 1.06715 h -5.61622 v -9.78076 h 5.17172 v 1.06715 h -3.98639 v 3.28966 h 3.98639 v 1.06715 h -3.98639 v 3.28965 z"
       style="fill:#000000;fill-opacity:1;fill-rule:nonzero;stroke:none;stroke-width:0.352778" />
    <path
       id="path181"
       d="m 228.46103,148.89244 v 9.78041 h -1.18569 v -4.3568 h -5.77955 v 4.3568 h -1.18534 v -9.78041 h 1.18534 v 4.35681 h 5.77955 v -4.35681 z"
       style="fill:#000000;fill-opacity:1;fill-rule:nonzero;stroke:none;stroke-width:0.352778" />
    <path
       id="path182"
       d="m 239.41023,153.94569 c 0,-2.43064 -1.68945,-4.19382 -4.03084,-4.19382 -2.19322,0 -3.79377,1.62983 -3.79377,3.86785 0,2.41512 1.70427,4.19347 4.03084,4.19347 2.20803,0 3.79377,-1.63018 3.79377,-3.8675 m -9.05475,-0.11853 c 0,-2.94887 2.19358,-5.08283 5.18689,-5.08283 2.97886,0 5.11281,2.10432 5.11281,4.99393 0,2.94887 -2.19322,5.08282 -5.20171,5.08282 -2.96368,0 -5.09799,-2.10432 -5.09799,-4.99392"
       style="fill:#000000;fill-opacity:1;fill-rule:nonzero;stroke:none;stroke-width:0.352778" />
    <path
       id="path183"
       d="m 151.97816,164.0617 -4.68277,9.78076 h -0.59302 l -4.65314,-9.78076 h 1.36349 l 3.61597,7.79498 3.64525,-7.79498 z"
       style="fill:#000000;fill-opacity:1;fill-rule:nonzero;stroke:none;stroke-width:0.352778" />
    <path
       id="path184"
       d="m 161.62326,171.1748 c 0,-1.0668 -0.87454,-1.74872 -2.20804,-1.74872 h -1.83762 v 3.40854 h 2.05987 c 1.18534,0 1.98579,-0.65229 1.98579,-1.65982 m -4.04566,-6.10552 v 3.40818 h 1.49649 c 1.17087,0 1.9117,-0.6664 1.9117,-1.6891 0,-1.05233 -0.8001,-1.71908 -2.05987,-1.71908 z m 5.29026,6.07589 c 0,1.645 -1.34832,2.69734 -3.423,2.69734 h -3.05294 v -9.78077 H 159 c 1.97097,0 3.23074,0.9779 3.23074,2.50437 0,1.02235 -0.54821,1.80799 -1.48202,2.1784 1.31904,0.32597 2.11914,1.18569 2.11914,2.40066"
       style="fill:#000000;fill-opacity:1;fill-rule:nonzero;stroke:none;stroke-width:0.352778" />
    <path
       id="path185"
       d="m 165.72652,168.64094 h 1.86725 c 1.36349,0 2.22286,-0.71155 2.22286,-1.80799 0,-1.08197 -0.85937,-1.76353 -2.22286,-1.76353 h -1.86725 z m 6.22406,4.54942 -0.7112,0.889 -5.51286,-4.43089 v 4.19383 h -1.18533 v -9.78042 h 3.2452 c 2.0006,0 3.27519,1.05199 3.27519,2.71181 0,1.74836 -1.3783,2.85997 -3.54189,2.87478 z"
       style="fill:#000000;fill-opacity:1;fill-rule:nonzero;stroke:none;stroke-width:0.352778" />
    <path
       id="path186"
       d="m 179.41786,169.69306 -1.9117,-3.85304 -1.92652,3.85304 z m 0.5334,1.0668 h -4.90502 l -1.54129,3.08257 H 172.26 l 4.97946,-9.78076 h 0.59266 l 4.94983,9.78076 h -1.30422 z"
       style="fill:#000000;fill-opacity:1;fill-rule:nonzero;stroke:none;stroke-width:0.352778" />
    <path
       id="path187"
       d="m 188.93027,165.12868 h -2.81552 v 8.71361 h -1.18569 v -8.71361 h -2.83033 v -1.0668 h 6.83154 z"
       style="fill:#000000;fill-opacity:1;fill-rule:nonzero;stroke:none;stroke-width:0.352778" />
    <path
       id="path188"
       d="m 190.44042,164.06161 h 1.18533 v 9.78077 h -1.18533 z"
       style="fill:#000000;fill-opacity:1;fill-rule:nonzero;stroke:none;stroke-width:0.352778" />
    <path
       id="path189"
       d="m 193.52206,172.09361 c 0.81527,0.5782 1.67464,0.83009 2.54917,0.83009 1.18534,0 1.86725,-0.59302 1.86725,-1.39312 0,-2.03059 -4.26825,-2.38584 -4.26825,-5.09799 0,-1.48167 1.33385,-2.51884 3.17147,-2.51884 0.74083,0 1.43722,0.133 2.04505,0.38488 v 1.27459 c -0.5782,-0.37042 -1.3783,-0.59267 -2.13395,-0.59267 -1.17087,0 -1.85244,0.59267 -1.85244,1.28905 0,1.97097 4.28272,2.40101 4.28272,5.21653 0,1.49683 -1.27423,2.50437 -3.27518,2.50437 -0.93345,0 -1.79282,-0.23707 -2.40066,-0.56304 z"
       style="fill:#000000;fill-opacity:1;fill-rule:nonzero;stroke:none;stroke-width:0.352778" />
    <path
       id="path190"
       d="m 206.16144,172.77539 v 1.0668 h -5.08282 v -9.78041 h 1.18533 v 8.71361 z"
       style="fill:#000000;fill-opacity:1;fill-rule:nonzero;stroke:none;stroke-width:0.352778" />
    <path
       id="path191"
       d="m 213.62901,169.69306 -1.9117,-3.85304 -1.92652,3.85304 z m 0.5334,1.0668 h -4.90502 l -1.54129,3.08257 h -1.24495 l 4.97946,-9.78076 h 0.59266 l 4.94983,9.78076 h -1.30422 z"
       style="fill:#000000;fill-opacity:1;fill-rule:nonzero;stroke:none;stroke-width:0.352778" />
    <path
       id="path192"
       d="m 226.04602,164.0617 -4.68277,9.78076 h -0.59302 l -4.65314,-9.78076 h 1.36349 l 3.61597,7.79498 3.64525,-7.79498 z"
       style="fill:#000000;fill-opacity:1;fill-rule:nonzero;stroke:none;stroke-width:0.352778" />
    <path
       id="path193"
       d="m 232.92034,172.77539 v 1.0668 h -5.61622 v -9.78041 h 5.17172 v 1.0668 h -3.98639 v 3.28965 h 3.98639 v 1.06715 h -3.98639 v 3.29001 z"
       style="fill:#000000;fill-opacity:1;fill-rule:nonzero;stroke:none;stroke-width:0.352778" />
  </g>
</svg>
